<?xml version="1.0" standalone="no"?>
<!DOCTYPE svg PUBLIC "-//W3C//DTD SVG 20010904//EN"
 "http://www.w3.org/TR/2001/REC-SVG-20010904/DTD/svg10.dtd">
<svg version="1.0" xmlns="http://www.w3.org/2000/svg"
 width="256.000000pt" height="256.000000pt" viewBox="0 0 256.000000 256.000000"
 preserveAspectRatio="xMidYMid meet">
<metadata>
Created by potrace 1.14, written by Peter Selinger 2001-2017
</metadata>
<g transform="translate(0.000000,256.000000) scale(0.100000,-0.100000)"
fill="#000000" stroke="none">
<path d="M1257 2474 c-1 -1 -22 -4 -47 -7 -81 -9 -110 -19 -133 -46 -13 -16
-43 -33 -70 -40 -46 -13 -107 -51 -145 -89 -57 -58 -74 -127 -73 -307 1 -77
-2 -145 -7 -152 -4 -7 -21 -9 -47 -5 -22 4 -146 7 -276 6 -272 0 -290 -4 -319
-68 -16 -36 -18 -65 -17 -246 3 -224 6 -237 60 -270 29 -18 51 -20 219 -20
l187 0 37 -32 c66 -58 113 -108 104 -109 -30 -4 -98 -28 -143 -51 -67 -33
-137 -114 -151 -173 -4 -16 -7 -30 -7 -30 0 0 -4 -18 -10 -40 -10 -42 -57
-261 -65 -305 -3 -14 -7 -33 -10 -42 -3 -10 -7 -29 -10 -43 -5 -32 -12 -65
-18 -90 -22 -94 -25 -116 -20 -129 6 -17 14 -18 190 -20 90 -1 91 -1 119 -34
15 -18 41 -38 57 -45 37 -15 1154 -14 1238 1 42 7 61 17 84 43 l29 33 154 1
c125 0 156 3 163 15 5 8 8 22 5 30 -2 8 -7 31 -10 50 -3 19 -10 51 -15 71 -9
31 -18 75 -36 169 -3 14 -11 53 -19 88 -8 34 -17 77 -20 95 -3 17 -10 48 -15
67 -5 19 -12 50 -15 69 -14 81 -72 161 -149 206 -52 30 -149 61 -257 80 -26 5
-114 44 -154 68 -11 7 -28 17 -39 23 -15 9 -19 24 -20 78 -1 36 0 66 2 66 2 0
21 -13 41 -29 109 -85 227 -110 391 -82 101 17 106 18 153 39 59 26 117 74
160 132 84 115 95 286 27 420 -30 59 -115 141 -172 168 -163 75 -193 84 -282
87 l-70 2 -2 78 c-2 43 -7 89 -13 102 -6 13 -16 34 -22 47 -35 75 -132 134
-249 151 -92 13 -285 26 -293 19z m-333 -998 c14 -24 47 -63 74 -87 l49 -44
-1 -65 -1 -65 -70 -42 c-38 -23 -72 -39 -75 -36 -4 4 -8 383 -4 383 1 0 14
-20 28 -44z"/>
</g>
</svg>
