<?xml version="1.0" standalone="no"?>
<!DOCTYPE svg PUBLIC "-//W3C//DTD SVG 20010904//EN"
 "http://www.w3.org/TR/2001/REC-SVG-20010904/DTD/svg10.dtd">
<svg version="1.0" xmlns="http://www.w3.org/2000/svg"
 width="512.000000pt" height="512.000000pt" viewBox="0 0 512.000000 512.000000"
 preserveAspectRatio="xMidYMid meet">
<metadata>
Created by potrace 1.14, written by Peter Selinger 2001-2017
</metadata>
<g transform="translate(0.000000,512.000000) scale(0.100000,-0.100000)"
fill="#000000" stroke="none">
<path d="M3408 4565 c-1 -1 -29 -6 -60 -9 -246 -28 -465 -209 -549 -453 -41
-120 -43 -273 -5 -398 18 -58 26 -44 -114 -181 l-85 -83 -217 216 -217 217 50
54 c82 90 99 204 44 298 -51 86 -122 126 -227 125 -87 -1 -118 -25 -390 -299
-281 -283 -290 -296 -283 -405 8 -125 110 -226 233 -229 76 -2 126 18 187 74
l56 51 215 -214 c118 -117 214 -217 214 -220 0 -4 -186 -193 -413 -421 -227
-227 -437 -442 -467 -478 -160 -194 -284 -469 -325 -720 -4 -25 -9 -54 -11
-65 -23 -110 -25 -469 -4 -590 17 -101 31 -135 77 -186 98 -108 262 -118 371
-23 68 60 96 126 92 219 -6 144 -5 412 3 460 4 28 10 64 13 80 7 42 33 142 49
190 12 37 14 38 19 15 3 -14 8 -45 11 -70 28 -236 130 -514 276 -756 60 -101
109 -149 174 -173 180 -68 375 74 363 263 -4 64 -6 69 -101 246 -65 121 -117
253 -146 366 -31 121 -32 130 -37 269 -7 186 3 226 130 565 8 19 23 60 35 90
11 31 21 61 21 67 0 11 82 99 123 132 15 12 17 11 16 -10 -1 -13 1 -55 5 -94
3 -38 8 -99 11 -135 22 -262 24 -279 41 -318 65 -157 275 -193 396 -68 62 64
72 123 53 321 l-7 70 204 -203 c112 -112 220 -213 241 -223 77 -40 171 -31
244 24 52 40 82 99 87 170 7 95 -12 120 -284 395 l-245 247 -28 110 c-15 61
-30 117 -32 125 -2 8 -17 64 -32 123 l-28 109 22 17 c20 17 25 17 90 1 92 -24
233 -23 325 0 123 32 212 83 304 174 103 102 163 213 191 356 3 14 5 68 5 120
1 192 -71 354 -216 487 -105 96 -241 157 -375 169 -37 3 -71 7 -78 9 -6 2 -13
2 -15 0z m138 -179 c63 -14 171 -71 229 -123 126 -112 188 -325 144 -498 -32
-130 -137 -259 -260 -319 -144 -71 -272 -75 -426 -14 -37 14 -59 18 -77 11
-14 -4 -98 -79 -186 -167 -143 -142 -164 -168 -162 -206 1 -34 14 -202 17
-225 2 -16 7 -68 10 -115 4 -47 8 -101 10 -120 2 -19 6 -69 9 -110 4 -41 9
-94 11 -118 2 -23 7 -81 11 -130 3 -48 7 -98 8 -112 3 -31 -18 -75 -39 -84
-48 -18 -113 9 -116 47 0 6 -2 21 -4 31 -2 10 -6 60 -10 110 -3 50 -8 102 -10
116 -2 14 -7 66 -10 115 -4 50 -8 106 -10 125 -2 19 -6 73 -10 120 -3 47 -13
95 -20 106 -17 27 -63 44 -90 34 -32 -12 -881 -869 -930 -939 -108 -156 -189
-378 -212 -586 -10 -85 -11 -388 -2 -466 8 -65 -8 -109 -46 -129 -52 -28 -120
-13 -149 33 -8 12 -17 46 -21 76 -4 30 -9 63 -11 75 -6 31 -6 302 1 366 26
262 110 527 222 698 78 120 161 207 843 887 386 385 707 711 715 725 12 23 10
35 -17 110 -81 230 -7 465 188 601 48 32 130 67 189 79 39 8 170 5 211 -4z
m-1454 -216 c32 -25 42 -73 24 -108 -17 -33 -467 -481 -484 -483 -7 -1 -18 -2
-24 -3 -7 -1 -26 2 -42 7 -33 11 -61 66 -50 100 7 25 459 484 489 497 33 14
61 11 87 -10z m341 -892 c-26 -27 -50 -48 -54 -48 -7 0 -429 419 -429 427 0 3
21 28 47 54 l48 49 217 -217 218 -218 -47 -47z m601 -231 c16 -54 10 -58 -27
-19 -26 27 -26 29 -10 49 10 12 19 20 20 19 2 -1 9 -24 17 -49z m596 -881 c14
-22 16 -34 8 -56 -11 -32 -56 -55 -88 -45 -12 4 -140 125 -284 270 l-263 262
-6 78 c-14 158 -43 174 304 -171 171 -170 319 -322 329 -338z m-1531 -53 c-25
-75 -55 -207 -57 -253 -4 -78 -3 -204 2 -240 34 -242 125 -490 252 -688 48
-75 54 -104 35 -154 -20 -54 -103 -78 -154 -45 -86 56 -278 467 -323 692 -24
120 -32 199 -32 335 l-1 135 152 152 c83 84 152 153 153 153 2 0 -10 -39 -27
-87z"/>
<path d="M3355 4252 c-101 -21 -107 -164 -7 -191 97 -27 167 92 96 163 -26 25
-56 35 -89 28z"/>
</g>
</svg>
