<svg data-name="Layer 1" xmlns="http://www.w3.org/2000/svg" viewBox="0 0 370 370" height="300" width="300"><path d="M346.33 254c0 74.06-67.66 79.35-151.12 79.35S44.09 328 44.09 254s67.66-134.1 151.12-134.1S346.33 179.93 346.33 254z" fill="#f1e8c1"></path><path d="M273.23 212c-3.17-.52-3-1.9-2.93-2.64v-.07c.2-1.44.41-2.73.6-3.91.45-2.72.87-4.84 1.28-6.43a3.3 3.3 0 0 1-2 .26 4.09 4.09 0 0 1-3-1.93c-.32-.58-.24-.83.09-1.46a36.79 36.79 0 0 1 7.95-8.37 3.11 3.11 0 0 1 2.28-.79 5.24 5.24 0 0 1 .74.08c2.14.35 2.83 1.41 2.84 3.45l-1.42 8.65a102.3 102.3 0 0 1-2.19 10.36c-.5 1.85-1.49 3-2.61 3a13.88 13.88 0 0 1-1.63-.2zm10.1-35.29a52 52 0 0 1-7.2-1c-1.64-.35-4.76-.71-5.77-2.35a5.34 5.34 0 0 1-.38-3.46c.4-2.43 3.34-4.25 5.67-5.75 3.08-2 5.26-4.2 5.46-5.45a1 1 0 0 0-.81-1.23c-2.4-.4-3.17 3.18-5.89 2.73a2.69 2.69 0 0 1-1.29-.44 3.13 3.13 0 0 1-1.38-3.13 4.65 4.65 0 0 1 .27-.94 9.1 9.1 0 0 1 9.54-5.19c5.15.84 7.38 4 6.7 8.2-.76 4.67-6.11 8.48-10.68 11 1.37.15 3.81.25 5.58.54s3.82.67 3.33 3c-.3 1.76-1.61 3.5-3.15 3.47z" fill="#f17f21"></path><path d="M252.93 198.68s2 10.1 2.7 9.26 9.5-26.49 9.5-26.49l26.32 4.32" stroke-linecap="round" stroke-linejoin="round" stroke-width="4" stroke="#f17f21" fill="none"></path><path d="M332.71 223.06c-3.16-.52-3-1.89-2.93-2.63v-.07c.2-1.45.41-2.73.6-3.91.45-2.72.87-4.84 1.29-6.44a3.41 3.41 0 0 1-2.05.27 4 4 0 0 1-3-1.93c-.32-.59-.24-.84.09-1.46a36.54 36.54 0 0 1 7.94-8.37 3.17 3.17 0 0 1 2.29-.8 5.35 5.35 0 0 1 .74.09c2.13.35 2.83 1.41 2.83 3.45l-1.42 8.64a102.43 102.43 0 0 1-2.19 10.37c-.49 1.85-1.48 3-2.6 3a10.51 10.51 0 0 1-1.59-.21zm10.1-35.23a55.22 55.22 0 0 1-7.2-1c-1.64-.35-4.75-.71-5.77-2.35a5.35 5.35 0 0 1-.38-3.46c.4-2.43 3.35-4.25 5.67-5.76 3.08-1.95 5.26-4.19 5.47-5.45a1 1 0 0 0-.82-1.23c-2.39-.39-3.17 3.19-5.89 2.74a2.73 2.73 0 0 1-1.29-.44 3.11 3.11 0 0 1-1.37-3.13 4.43 4.43 0 0 1 .26-.94 9.12 9.12 0 0 1 9.55-5.2c5.14.85 7.38 4 6.7 8.21-.77 4.67-6.12 8.47-10.69 11 1.37.15 3.81.25 5.58.54s3.82.66 3.33 3c-.29 1.71-1.61 3.49-3.15 3.47z" fill="#f17f21"></path><path d="M312.41 209.8s2 10.1 2.7 9.26 9.51-26.49 9.51-26.49l26.32 4.32" stroke-linecap="round" stroke-linejoin="round" stroke-width="4" stroke="#f17f21" fill="none"></path><path d="M313.1 195.32s-8-1.27-10.67-1.72c-.52-.08-.56 0-1.19-.15a8.17 8.17 0 0 1-3.46-1.25c-.46-.38-.83-.93-.57-2.51v-.15c.49-1.58 1.64-1.92 4.1-1.52s2.23.26 6.31.93c2.91.47 7.38 1.32 8.08 1.89l.13.1a2 2 0 0 1 .79 1.86 2.86 2.86 0 0 1-1.67 2.34 5.15 5.15 0 0 1-1.85.18zm1.33-8.09-10.67-1.72c-.52-.08-.56 0-1.19-.15a8.12 8.12 0 0 1-3.46-1.25c-.46-.38-.83-.93-.57-2.51v-.15c.48-1.58 1.63-1.92 4.1-1.52s2.22.25 6.31.92c2.9.48 7.37 1.33 8.07 1.9l.14.09a2 2 0 0 1 .79 1.87 2.85 2.85 0 0 1-1.67 2.33 5 5 0 0 1-1.85.19z" fill="#f17f21"></path><path d="M287.2 268.41c14-13.64 10.71-10.74 18.38-25.14.12-.24.25-.48.38-.71 0 0-14.87-24.74-55.21-39.43l-150.61 55s-18.53 29.55-17 60.55l44.05 3.37s.35 4.3 3.54 12.93h178.82a594.39 594.39 0 0 0-22.63-66.31z" fill="#f8d53e"></path><path d="m286.92 268.69.28-.28c14-13.64 10.71-10.74 18.38-25.14.12-.24.25-.48.38-.71 0 0-14.87-24.74-55.21-39.43l-150.61 55s-18.53 29.55-17 60.55l44.05 3.37" stroke="#404041" stroke-linecap="round" stroke-linejoin="round" stroke-width="4" fill="none"></path><path d="M256.31 288.3a90.51 90.51 0 0 0 30.61-19.61c14.56-14.18 10.83-10.83 19-26.13" stroke="#404041" stroke-linecap="round" stroke-linejoin="round" stroke-width="4" fill="none"></path><path d="M300.82 252.57c-2.54 4.92-3.91 6.38-13.9 16.12a93.87 93.87 0 0 1-24.7 17.11 289.09 289.09 0 0 1 22.6 49.2H343c-5.53-19.76-18.16-55.38-42.18-82.43z" fill="#cbebf9"></path><path d="M343 335c-5.57-19.76-18.2-55.38-42.22-82.43-2.54 4.92-3.91 6.38-13.9 16.12a93.87 93.87 0 0 1-24.7 17.11 289.09 289.09 0 0 1 22.6 49.2" stroke="#404041" stroke-linecap="round" stroke-linejoin="round" stroke-width="4" fill="none"></path><path d="M256.31 288.3a90.51 90.51 0 0 0 30.61-19.61c14.56-14.18 10.83-10.83 19-26.13" stroke="#404041" stroke-linecap="round" stroke-linejoin="round" stroke-width="4" fill="none"></path><path d="M110 154.54c0-.12-1.74-31-8.23-31.15s-10 15.94.68 32.47" fill="#829eca" stroke="#414141" stroke-linecap="round" stroke-linejoin="round" stroke-width="4"></path><path d="M100.15 258.15s-36.35-120.23 38.3-140.93 112.3 85.91 112.3 85.91-10.57 47.26-77.45 69.87c-53.68 18.21-73.15-14.85-73.15-14.85z" fill="#cbebf9" stroke="#404041" stroke-linecap="round" stroke-linejoin="round" stroke-width="4"></path><path d="M127.15 138.24s-7.52-17.49-.15-20.24c6.17-2.32 6.86 4.11 13.18 11.36" fill="#cbebf9" stroke="#404041" stroke-linecap="round" stroke-linejoin="round" stroke-width="4"></path><path d="M115.52 168.71s-21-65.63-8.5-68.61c8.31-2 13.75 21.06 30.7 40m48.37-9.68c0-.15 13.3-33.11 20.45-30.93s5 21.05-12.71 35.15" fill="#cbebf9" stroke="#404041" stroke-linecap="round" stroke-linejoin="round" stroke-width="4"></path><circle cx="172.09" cy="183.33" r="12" fill="#f9c1b6"></circle><ellipse cx="161.37" cy="172.55" rx="4.53" ry="6.8" transform="rotate(-15.43 161.358 172.54)" fill="#404041"></ellipse><ellipse cx="102.16" cy="204.26" rx="8.53" ry="12" transform="rotate(-9.7 102.144 204.228)" fill="#f9c1b6"></ellipse><ellipse cx="105.16" cy="190.31" rx="3.22" ry="6.8" transform="rotate(-9.7 105.166 190.3)" fill="#404041"></ellipse><path d="M121 197s8.86-5.38 26.57-6.73" stroke="#404041" stroke-linecap="round" stroke-linejoin="round" stroke-width="4" fill="none"></path><path d="M147.54 184.83s-1.37 6.95 3.51 10.5" stroke="#404041" stroke-linecap="round" stroke-linejoin="round" stroke-width="4" fill="none"></path><path d="M252.53 224.34c-10 17.3-31.73 42.66-76.63 57.86-40.13 13.59-62.77 1-73.08-8.35m56.77 35.99-15.74 17.08 14.14 8.08m53.59-32.56 19.88 12-15.84 16.38M182.37 335l12.48-43.3" stroke="#f89f33" stroke-linecap="round" stroke-linejoin="round" stroke-width="4" fill="none"></path><path d="M126.52 251.28s.46-14-8.06-12.43-5.52 21-5.52 21S90.84 298.24 86.7 324a37.37 37.37 0 0 0-.22 11h50.65c8.42-17.6 12.41-40.67 12.41-40.67s6-3.92 5.76-8.29-2.54-6-2.54-6 4.51-2.85 4.84-7.08-3-7.55-3-7.55 15-1 13.36-10.47-41.44-3.66-41.44-3.66z" fill="#cbebf9"></path><path d="M137.13 335c8.42-17.6 12.41-40.67 12.41-40.67s6-3.92 5.76-8.29-2.54-6-2.54-6 4.51-2.85 4.84-7.08-3-7.55-3-7.55 15-1 13.36-10.47-41.44-3.68-41.44-3.68.46-14-8.06-12.43-5.52 21-5.52 21S90.84 298.24 86.7 324a37.37 37.37 0 0 0-.22 11" stroke="#404041" stroke-linecap="round" stroke-linejoin="round" stroke-width="4" fill="none"></path><path stroke-linecap="round" stroke-linejoin="round" stroke-width="4" stroke="#f17f21" fill="none" d="m80.83 248.41-53.19-8.01 24-90 29.19 98.01z"></path><path stroke-linecap="round" stroke-linejoin="round" stroke-width="4" stroke="#f17f21" fill="none" d="m39.08 242.12 5.01-18.54-11.5-1.73"></path><ellipse cx="293.46" cy="126.89" rx="8.15" ry="38.91" transform="rotate(-86.2 293.447 126.888)" stroke-linecap="round" stroke-linejoin="round" stroke-width="4" stroke="#f17f21" fill="none"></ellipse><path stroke-linecap="round" stroke-linejoin="round" stroke-width="4" stroke="#f17f21" fill="none" d="m298.69 48.17-5.23 78.72 38.82 2.58-33.59-81.3-44.06 76.13"></path><path stroke-linecap="round" stroke-linejoin="round" stroke-width="4" stroke="#f17f21" fill="none" d="m294.45 111.93 14.96.99-.99 14.96"></path><path d="M142.7 54.67c2.28.82 4.32 1.53 3.72 3.26-1.17 3.38-4.63 2.1-7.33 1.48l-.16.45a2.39 2.39 0 0 0 .95 3.18 17.69 17.69 0 0 0 1.86.76c1.41.49 2.79.61 4.09 1.06a2.31 2.31 0 0 1 1.37 3c-1.27 3.67-6 2.84-9 1.82-3.66-1.28-6-3.11-6.64-5.07-.77-2.32 0-6.31 1.24-9.83 1.55-4.47 4.4-9.17 7.61-10a15.15 15.15 0 0 1 7.62.79c2.67.93 5.46 2.69 4.47 5.54a4 4 0 0 1-.38.85c-1.93 2.61-8.61-2.59-10.29 0a6.07 6.07 0 0 0-.51 1.13 5.33 5.33 0 0 0-.27 1zm24.02 19.81L156.5 71c-.5-.17-.54-.15-1.14-.35a8.14 8.14 0 0 1-3.2-1.82c-.39-.46-.66-1.06-.13-2.57l.05-.15c.74-1.47 1.94-1.61 4.3-.79s2.15.63 6.06 2c2.78 1 7 2.56 7.63 3.24l.12.12a2 2 0 0 1 .46 2 2.87 2.87 0 0 1-2 2 5 5 0 0 1-1.93-.2zm2.69-7.75s-7.65-2.61-10.23-3.51c-.49-.17-.54-.14-1.13-.35a8.07 8.07 0 0 1-3.2-1.82c-.4-.45-.66-1.06-.13-2.57v-.14c.75-1.48 2-1.62 4.31-.8s2.14.63 6.05 2c2.79 1 7 2.57 7.64 3.25l.12.12a2 2 0 0 1 .45 2 2.82 2.82 0 0 1-2 2 5 5 0 0 1-1.88-.18zm22.71 10.17c-.92-.31-4.35 5.36-7 4.44h-.14c-2.68-.92-2.31-5.61-2.83-7.41a10.38 10.38 0 0 0-1.66 3.53A17.67 17.67 0 0 1 179 81a3 3 0 0 1-1.17 1.09 4.06 4.06 0 0 1-3.17-.08c-1.72-.6-2.36-1.6-1.53-4l.08-.21c2.14-5.49 4.58-12.3 7.7-16.62 1.23-1.74 2.82-2.89 4.51-2.31a3.79 3.79 0 0 1 1.9 1.57c1.64 2.31.13 10.54 1.47 11 1.51.52 5.16-7.48 9.34-7.26a3.48 3.48 0 0 1 .85.18 3.64 3.64 0 0 1 2.21 2.5c.6 2.46-.18 4.72-1 8-.92 3.55-1.56 6-2.46 8.58-.42 1.19-.92 2.4-1.47 3.67a4 4 0 0 1-4.39.92c-1.87-.65-2-2.52-1.62-4.66zm31.1.66a2.87 2.87 0 0 1-3.95 1.94 5.58 5.58 0 0 1-1.51-.88 10.92 10.92 0 0 0-3-2.13c-3.8-1.31-5.89 1.4-6.71 3.75a5 5 0 0 0 2.64 6.4c3.47 1.37 5.27-1 7.66-.14a4.15 4.15 0 0 1 .69.28 2.17 2.17 0 0 1 1 2.7 5.11 5.11 0 0 1-.57 1.18c-2.25 3.64-7.75 4.14-11.23 2.93-6.59-2.28-8.62-9.62-6.54-15.61 2.28-6.58 8.26-10.62 15.19-8.41a11.21 11.21 0 0 1 5.67 4 4.36 4.36 0 0 1 .66 3.99zm15.92-.48a52.68 52.68 0 0 1-6.91-2.24c-1.56-.62-4.57-1.51-5.29-3.3a5.25 5.25 0 0 1 .22-3.47c.8-2.33 4-3.62 6.56-4.71 3.37-1.39 5.9-3.24 6.32-4.44a1 1 0 0 0-.6-1.35c-2.29-.79-3.66 2.6-6.27 1.7a2.75 2.75 0 0 1-1.19-.66 3.12 3.12 0 0 1-.82-3.32 4.37 4.37 0 0 1 .42-.88 9.1 9.1 0 0 1 10.29-3.49c4.93 1.71 6.58 5.24 5.2 9.22-1.55 4.48-7.47 7.31-12.41 9 1.33.38 3.72.89 5.41 1.48s3.65 1.3 2.77 3.48c-.58 1.73-2.18 3.27-3.7 2.98zM49.6 113.15a4.56 4.56 0 0 1-2.11 2.38 2.72 2.72 0 0 1-2.77-.12 2.07 2.07 0 0 1-.84-.87l-.1-.2a8.28 8.28 0 0 1-.39-4.3c.1-.89 1-6.65.85-6.92l-1.42-.84c-5.24-3.09-6.87-4.28-7.77-6l-.14-.3c-.63-1.52.2-2.68 1.66-3.45l.16-.08c2.67-1.33 4.72-.31 6.37.83 1.48 1.06 4.39 3.23 4.76 3s.45-2.1.54-2.43a28.45 28.45 0 0 1 .6-5.4 4.4 4.4 0 0 1 2.22-3c1.34-.66 3-.73 3.75.84l.07.14a7.2 7.2 0 0 1 .5 3.57 48.22 48.22 0 0 1-1 8.18c.46.43 2.4 1.55 3.16 2.09 2.81 2 4.73 2.9 5.34 4.13a2.85 2.85 0 0 1-1.56 3.9l-.27.13a5.21 5.21 0 0 1-2.47.65c-2-.09-6-3.82-7.17-3.23-.72.44-.71 4.22-1.97 7.3zm31.6-29.8c.45.48.83.5 1.63.1l1.87-.93a53.39 53.39 0 0 1-2.52-7A2.54 2.54 0 0 1 83.69 73l.17-.08c2.32-1 4 1.91 4.74 3.35l1.11 2.23a7.65 7.65 0 0 1 .4.89c2.74-1.28 3.86-1.79 4.64-.22.79 1.93.62 4.27-2 5.56 1.16 2.42 1.84 4 2.79 6.11.21 1.1-1.52 2-2.33 2.44a3.37 3.37 0 0 1-3 .23 10.54 10.54 0 0 1-1.72-2.72c-.52-1-.82-1.72-1.33-2.76-3.91 1.69-8.7 5-10.8.71-1.63-3.27-1.78-9.53-2.33-14a2.7 2.7 0 0 1 1.55-1.64c2.82-1.11 3.53 1.32 3.75 1.42a50.24 50.24 0 0 1 1.87 8.83z" fill="#f17f21"></path><path d="M61.34 94.14s10 9.36 10.14 7.92S61.13 66 61.13 66L93 50.13" stroke-linecap="round" stroke-linejoin="round" stroke-width="4" stroke="#f17f21" fill="none"></path></svg>