<svg data-name="Layer 1" xmlns="http://www.w3.org/2000/svg" viewBox="0 0 370 370" height="300" width="300"><path d="M108.35 269.31s-4.75 10.53 13 20.58 47.18 2.94 47.18 2.94H326s-5.46-55.59-27-77.48z" stroke="#404041" stroke-linecap="round" stroke-linejoin="round" stroke-width="4" fill="#f8d53e"></path><path fill="#a87c4f" stroke="#404041" stroke-linecap="round" stroke-linejoin="round" stroke-width="4" d="M42.2 109.96 115.1 212l12.13-8.7-67.95-100.74-17.08 7.4z"></path><path d="m42.2 110-5.38-8.38s6-7.52 15.68-9.52l6.78 10.5z" fill="#a87c4f" stroke="#404041" stroke-linecap="round" stroke-linejoin="round" stroke-width="4"></path><path d="M98.28 169.83c16.06-13.86 21.45-29 12.54-48.85s-28.94-27.43-44.77-20.36l-33.59 12.47a4.38 4.38 0 0 0-2.36 6.13l42.25 71.63z" fill="#a87c4f" stroke="#404041" stroke-linecap="round" stroke-linejoin="round" stroke-width="4"></path><path d="M299 215.35c-3.69-64.77-27.09-109-27.09-109C276 96 276.4 74.89 269 74.7s-6.57 19.89-6.57 19.89c-62.8-36.94-109.59 7.8-109.59 7.8s-17.06-32.66-19.6-19.29c-2.84 15 10.17 38 10.17 38-18.06 33.47-6.56 102.2-6.56 102.2s14.62 32 84.76 28.49S299 215.35 299 215.35z" fill="#cbebf9" stroke="#404041" stroke-linecap="round" stroke-linejoin="round" stroke-width="4"></path><path d="M211.5 90.6s3.19-26.5 15.3-25.68 9.57 25.68 9.57 25.68" fill="#cbebf9" stroke="#404041" stroke-linecap="round" stroke-linejoin="round" stroke-width="4"></path><path d="M221.61 97.8s12.1-61.92 20.4-60.74c12.69 1.82 12 69.33 12 69.33" fill="#cbebf9" stroke="#404041" stroke-linecap="round" stroke-linejoin="round" stroke-width="4"></path><circle cx="183.35" cy="145.25" r="10.73" fill="#f9c1b6"></circle><ellipse cx="190.23" cy="134.52" rx="3.85" ry="5.77" fill="#404041"></ellipse><path fill="none" stroke="#404041" stroke-linecap="round" stroke-linejoin="round" stroke-width="4" d="m190.23 109.92 13.52 15.62m49.92 1.67-9.05 12.54-12.54-9.06"></path><ellipse cx="270.87" cy="134.9" rx="7.18" ry="10.73" fill="#f9c1b6"></ellipse><ellipse cx="266.26" cy="124.17" rx="2.57" ry="5.77" fill="#404041"></ellipse><path fill="none" stroke="#404041" stroke-linecap="round" stroke-linejoin="round" stroke-width="4" d="m259.15 116.36 4.54-9.97"></path><path d="M108.35 269.31s-14.65-27.29-9-49.93c0 0-13-6.32-6-16s21-15.64 21-15.64 1.66-14.31 9.65-13 11.65 12.31 9.32 24.63c0 0 9.65 5.93 7 16.78 0 0 12 .52 11 13.83s-10 17.41-10 17.41 2.46 8.94 6.32 12.55c-.02.06-14.33 29-39.29 9.37z" fill="#cbebf9" stroke="#404041" stroke-linecap="round" stroke-linejoin="round" stroke-width="4"></path><path d="M222.9 231.71s-44.32 5.1-61.22-5.42c0 0-1.91-11.8-12.75-9.89s-6.38 12.12-6.38 12.12-14.66 6.7-15.3 21 11.48 6.06 11.48 6.06-3.83 7.33.64 10.84 12.11-2.87 12.11-2.87-5.1 6.38-.64 9.25 14.35 0 14.35 0 34.75 14.34 77.8-1.92z" fill="#cbebf9" stroke="#404041" stroke-linecap="round" stroke-linejoin="round" stroke-width="4"></path><path d="m239.8 216.3-23.75 11 26.54 53.42c96.84-21.19 85.3-103.58-2.79-64.42z" stroke="#404041" stroke-linecap="round" stroke-linejoin="round" stroke-width="4" fill="#f8d53e"></path><path d="M133.31 199.42c-1.8-17.5-19-11.65-19-11.65" fill="none" stroke="#404041" stroke-linecap="round" stroke-linejoin="round" stroke-width="4"></path><path d="M114.34 207.8s10.65-6.15 18.9-9m-9.45 24.3 16.51-6.9m-40.94 3.18s1.35 9.94 10 11.37c0 0 .24 11.72 14.47 11.72" fill="none" stroke="#404041" stroke-linecap="round" stroke-linejoin="round" stroke-width="4"></path><ellipse cx="50.67" cy="152.91" rx="34.85" ry="43.83" transform="rotate(-24.1 50.655 152.88)" fill="#dab28c" stroke="#404041" stroke-linecap="round" stroke-linejoin="round" stroke-width="4"></ellipse><path d="M352.16 290.11c0 34.69-91.73 39.94-116.18 41.48-105.68 6.63-212.35-3.68-212.35-41.48z" fill="#ceaf9e"></path><ellipse cx="157.56" cy="309.61" rx="31.35" ry="8.31" fill="#bb9283"></ellipse><ellipse cx="252.53" cy="305.23" rx="64.4" ry="12.69" fill="#bb9283"></ellipse><path fill="#ffffff" stroke="#404041" stroke-linecap="round" stroke-linejoin="round" stroke-width="4" d="M25.31 290.11h325.16"></path><path fill="#e6e7e8" stroke="#404041" stroke-linecap="round" stroke-linejoin="round" stroke-width="4" d="m182.47 292.97 41.14 19.09 87.81-7.27-48.63-15.64-80.32 3.82z"></path><path d="M250.07 236.46a6.3 6.3 0 0 0-5.94 4.55l-20.52 71.05 87.81-7.27 28.65-67.2a2.1 2.1 0 0 0-.19-2 2.13 2.13 0 0 0-1.79-.93z" fill="#e6e7e8"></path><path d="m336.26 246.51 3.81-8.92a2.1 2.1 0 0 0-.19-2 2.13 2.13 0 0 0-1.79-.93l-88 1.8a6.3 6.3 0 0 0-5.94 4.55l-2.15 7.42z" fill="#ffffff"></path><path d="M250.07 236.46a6.3 6.3 0 0 0-5.94 4.55l-20.52 71.05 87.81-7.27 28.65-67.2a2.1 2.1 0 0 0-.19-2 2.13 2.13 0 0 0-1.79-.93z" fill="none" stroke="#404041" stroke-linecap="round" stroke-linejoin="round" stroke-width="4"></path><path d="M178.41 303.61c0 8.72-9.33 7.83-20.85 7.83s-20.85.89-20.85-7.83 9.34-15.78 20.85-15.78 20.85 7.07 20.85 15.78z" fill="#f1f1f2" stroke="#404041" stroke-linecap="round" stroke-linejoin="round" stroke-width="4"></path><path fill="none" stroke="#404041" stroke-linecap="round" stroke-linejoin="round" stroke-width="4" d="M157.56 296.64v14.8m-20.38-4.87s3.88-9.93 20.38-9.93 20.85 9.93 20.85 9.93"></path><path d="M310.9 81.88s1-20.13 10.45-17-10.45 17-10.45 17z" fill="#ffffff" stroke="#404041" stroke-linecap="round" stroke-linejoin="round" stroke-width="4"></path><path d="M310.9 81.88s-15.15-13.3-6.76-18.73 6.76 18.73 6.76 18.73z" fill="#ffffff" stroke="#404041" stroke-linecap="round" stroke-linejoin="round" stroke-width="4"></path><path d="M298.83 81.37h0a4.26 4.26 0 0 1 5.07-3.28l12.61 2.68a4.29 4.29 0 0 1 3.29 5.08h0c-1.39 6.48-22.36 2.01-20.97-4.48z" fill="#525252" stroke="#404041" stroke-linecap="round" stroke-linejoin="round" stroke-width="4"></path><path d="M96.31 74.05s-6.56-19.25 3.5-19.78-3.5 19.78-3.5 19.78z" fill="#ffffff" stroke="#404041" stroke-linecap="round" stroke-linejoin="round" stroke-width="4"></path><path d="M96.31 74.05S77.16 67.2 83 59s13.31 15.05 13.31 15.05z" fill="#ffffff" stroke="#404041" stroke-linecap="round" stroke-linejoin="round" stroke-width="4"></path><path d="M84.79 78.06h0a4.32 4.32 0 0 1 3.54-5l12.82-2.16a4.32 4.32 0 0 1 5 3.54h0c1.08 6.62-20.25 10.22-21.36 3.62z" fill="#525252" stroke="#404041" stroke-linecap="round" stroke-linejoin="round" stroke-width="4"></path><path d="M336.19 173.07s-20.1-33.4-1.47-38.48 1.47 38.48 1.47 38.48z" fill="#ffffff" stroke="#404041" stroke-linecap="round" stroke-linejoin="round" stroke-width="4"></path><path d="M336.19 173.07s-38.66-5.06-31-22.81 31 22.81 31 22.81z" fill="#ffffff" stroke="#404041" stroke-linecap="round" stroke-linejoin="round" stroke-width="4"></path><path d="M315.93 184.5h0c-1.52-3.82.68-8.29 4.92-10l23.15-9.23c4.24-1.69 8.91 0 10.44 3.86h0c4.28 10.72-34.22 26.11-38.51 15.37z" fill="#525252" stroke="#404041" stroke-linecap="round" stroke-linejoin="round" stroke-width="4"></path><path d="M71.73 263.78s.45-26.63 13.09-22.82-13.09 22.82-13.09 22.82z" fill="#ffffff" stroke="#404041" stroke-linecap="round" stroke-linejoin="round" stroke-width="4"></path><path d="M71.73 263.78S51.17 246.85 62 239.33s9.73 24.45 9.73 24.45z" fill="#ffffff" stroke="#404041" stroke-linecap="round" stroke-linejoin="round" stroke-width="4"></path><path d="M55.76 263.61h0a5.65 5.65 0 0 1 6.56-4.55l16.76 3a5.66 5.66 0 0 1 4.56 6.56h0c-1.56 8.65-29.44 3.62-27.88-5.01z" fill="#656769" stroke="#404041" stroke-linecap="round" stroke-linejoin="round" stroke-width="4"></path></svg>