<?xml version="1.0" ?><svg viewBox="0 0 64 64" xmlns="http://www.w3.org/2000/svg"><defs><style>.cls-1,.cls-2{fill:none;stroke:#000;stroke-linejoin:round;stroke-width:2px;}.cls-1{stroke-linecap:round;}</style></defs><g id="apps"><line class="cls-1" x1="14" x2="14" y1="46" y2="61"/><line class="cls-1" x1="3.305" x2="60.305" y1="60.9922" y2="60.9922"/><path class="cls-1" d="M14,13h0a4,4,0,0,1,4,4v7a0,0,0,0,1,0,0H14.5184A4.5184,4.5184,0,0,1,10,19.4816V17a4,4,0,0,1,4-4Z"/><line class="cls-1" x1="9" x2="9" y1="30" y2="42"/><path class="cls-1" d="M28.5,33H22V27.3333A3.3333,3.3333,0,0,0,18.6667,24H9.3334A3.3334,3.3334,0,0,0,6,27.3333V44.5a1.5,1.5,0,0,0,3,0V42l1,19h8l1-19V36h9.5a1.5,1.5,0,0,0,0-3Z"/><circle cx="19.8333" cy="8.0346" r="1.0691"/><circle cx="44.8333" cy="53.0346" r="1.0691"/><line class="cls-1" x1="54.9191" x2="57.7475" y1="51.1203" y2="53.9488"/><line class="cls-1" x1="57.7475" x2="54.9191" y1="51.1203" y2="53.9488"/><path class="cls-1" d="M28,36.6136v7.2233A3.163,3.163,0,0,0,31.163,47H47.837A3.163,3.163,0,0,0,51,43.8369V10.163A3.163,3.163,0,0,0,47.837,7H31.163A3.163,3.163,0,0,0,28,10.163V32.6692"/><line class="cls-1" x1="38" x2="42" y1="44" y2="44"/><rect class="cls-1" height="5" rx="1.0887" width="5" x="33" y="12"/><rect class="cls-1" height="5" rx="1.0887" width="5" x="41" y="12"/><rect class="cls-1" height="5" rx="1.0887" width="5" x="33" y="21"/><rect class="cls-1" height="5" rx="1.0887" width="5" x="41" y="21"/><line class="cls-2" x1="28" x2="51" y1="41" y2="41"/><line class="cls-2" x1="26" x2="26" y1="36" y2="33"/><line class="cls-2" x1="19" x2="6" y1="42" y2="42"/></g></svg>