<?xml version="1.0" ?><svg viewBox="0 0 64 64" xmlns="http://www.w3.org/2000/svg"><defs><style>.cls-1,.cls-2,.cls-3{fill:none;stroke:#000;stroke-linejoin:round;stroke-width:2px;}.cls-1{stroke-linecap:round;}.cls-3{stroke-linecap:square;}</style></defs><g id="e-meet"><circle cx="17.8333" cy="11.0346" r="1.0691"/><path class="cls-1" d="M38,47.2926v8.5443A3.163,3.163,0,0,0,41.163,59H56.837A3.163,3.163,0,0,0,60,55.8369V22.163A3.163,3.163,0,0,0,56.837,19H41.163A3.163,3.163,0,0,0,38,22.163V43.6694"/><path class="cls-1" d="M49.5184,24H53a0,0,0,0,1,0,0v7a4,4,0,0,1-4,4h0a4,4,0,0,1-4-4V28.5184A4.5184,4.5184,0,0,1,49.5184,24Z" transform="translate(98 59) rotate(180)"/><line class="cls-1" x1="54" x2="54" y1="41" y2="53"/><path class="cls-1" d="M57,52.7363V38.3333A3.3334,3.3334,0,0,0,53.6666,35H44.3333A3.3333,3.3333,0,0,0,41,38.3333V44H34.5a1.5,1.5,0,0,0,0,3H44v5.7363"/><line class="cls-1" x1="44.5858" x2="47.4142" y1="11.5858" y2="14.4142"/><line class="cls-1" x1="47.4142" x2="44.5858" y1="11.5858" y2="14.4142"/><circle cx="49" cy="56" r="1"/><circle class="cls-1" cx="34.5" cy="10.5" r="2.5"/><line class="cls-2" x1="38" x2="60" y1="53" y2="53"/><line class="cls-1" x1="44" x2="44" y1="47" y2="41"/><line class="cls-3" x1="37" x2="37" y1="47" y2="44"/><path class="cls-1" d="M28,47.35v8.4868A3.163,3.163,0,0,1,24.837,59H9.163A3.163,3.163,0,0,1,6,55.8369V22.163A3.163,3.163,0,0,1,9.163,19H24.837A3.163,3.163,0,0,1,28,22.163V43.7269"/><path class="cls-1" d="M17,24h0a4,4,0,0,1,4,4v7a0,0,0,0,1,0,0H17.5184A4.5184,4.5184,0,0,1,13,30.4816V28A4,4,0,0,1,17,24Z"/><line class="cls-1" x1="12" x2="12" y1="41" y2="53"/><path class="cls-1" d="M9,52.7363V38.3333A3.3334,3.3334,0,0,1,12.3334,35h9.3333A3.3333,3.3333,0,0,1,25,38.3333V44h6.5a1.5,1.5,0,0,1,0,3H22v5.7363"/><circle cx="17" cy="56" r="1"/><line class="cls-2" x1="28" x2="6" y1="53" y2="53"/><line class="cls-1" x1="22" x2="22" y1="47" y2="41"/><line class="cls-3" x1="29" x2="29" y1="47" y2="44"/></g></svg>